ply
format ascii 1.0
comment File exported by Rhinoceros Version 7.0
element vertex 274
property float x
property float y
property float z
property float nx
property float ny
property float nz
element face 492
property list uchar uint vertex_indices
end_header
53.9914081096649 50.0848780870438 10.9397506713868 0.1036938 0.3209558 0.9414005
58.6093142032623 49.2805256843567 10.2679142951966 0.2789289 0.2996506 0.9123641
54.9438768625259 47.4787013530731 11.5380692481995 0.1332089 0.2179438 0.9668278
54.5417578220367 49.5301783084869 11.0514001846314 0.126147 0.2943081 0.9473488
55.1162356138229 50.6288058757782 10.588704109192 0.1502364 0.3437616 0.9269612
54.1293883323669 50.9802253842354 10.5935950279237 0.1118438 0.3596302 0.9263677
53.201596736908 49.9818036854267 11.0463848114014 0.07283435 0.3125448 0.9471066
53.6912543773651 48.9593435525894 11.3077077865601 0.09153075 0.2644053 0.9600583
53.0047812461853 51.2278351187706 10.6117944717408 0.07000738 0.3655238 0.9281656
57.8926184177399 49.4569171071053 10.409905910492 0.2475609 0.3055388 0.9194344
57.8943758010864 48.2998547554016 10.7532391548157 0.2431167 0.2551356 0.9358419
58.9109377861023 48.4886807203293 10.4153842926026 0.2896895 0.2669751 0.9191324
59.2301433086395 49.8836244344711 9.85110950469978 0.3090476 0.3291868 0.8922587
58.4258050918579 50.5978842675686 9.8419175148011 0.2746346 0.3550162 0.8936102
59.9951877593994 48.9977993965149 9.88618493080146 0.3368405 0.2931357 0.8947681
55.4370157122612 45.7875351905823 11.7963361740113 0.1481049 0.1617052 0.975662
57.1730745434761 45.6957802772522 11.4886274337769 0.2063257 0.1612137 0.9651113
56.8685547113419 46.9991807937622 11.3062181472779 0.1979421 0.2055005 0.9584302
56.7869356274605 48.3054828643799 11.0203108787537 0.2007435 0.2557292 0.9456768
55.5649442672729 48.7144997119904 11.1362304687501 0.1592144 0.2681734 0.9501231
52.4488053321838 48.6379808187485 11.4878730773926 0.05320881 0.2563749 0.9651118
53.1462037563324 47.264523267746 11.7766842842103 0.07594481 0.2079114 0.975195
53.8276553153992 45.9032917022705 11.9688253402711 0.094172 0.1597723 0.9826517
51.81121301651 47.0511078834534 11.8848562240601 0.02941958 0.1985853 0.979642
52.4538633823395 45.7683434486389 12.0905580520631 0.04916086 0.1545552 0.9867603
52.9783968925476 44.5422534942627 12.2262892723084 0.06507912 0.1142752 0.9913152
54.2850803136826 44.5486178398132 12.1137681007386 0.1078548 0.115644 0.9874178
55.7963671386242 44.4509787559509 11.9201049804688 0.158976 0.1146716 0.9806004
57.5091644525528 44.4480986595154 11.5924358367921 0.217849 0.1166904 0.9689815
54.5502766370773 43.2496204376221 12.2075157165528 0.1169383 0.07360326 0.990408
56.0642930567265 43.1934638023377 11.9946632385255 0.1665027 0.07367935 0.9832844
57.7677618265152 43.2088904380798 11.6550583839417 0.2260833 0.07662128 0.9710898
59.4103486537933 43.322368144989 11.2047438621522 0.2901381 0.08148969 0.953509
59.1072552204132 44.6190514564514 11.1557545661927 0.2802215 0.1245425 0.951822
56.2163467742503 41.9727869033814 12.0336565971375 0.1697175 0.03567224 0.9848469
57.9255419969559 41.9551401138306 11.6939969062806 0.2311216 0.03681865 0.9722279
59.5807659626007 41.9847040176392 11.2331123352051 0.2964954 0.03777312 0.954287
61.1255898475647 42.0362176895142 10.6974887847901 0.357299 0.0396943 0.9331462
60.9357161521912 43.4882874488831 10.6704077720643 0.3510406 0.08846626 0.9321718
57.9695509672165 40.690203666687 11.7057309150697 0.2327738 0.01676766 0.9723864
59.6222772598267 40.61643409729 11.2422552108765 0.2986158 0.01596272 0.9542399
61.1665377616882 40.5475034713745 10.7067131996155 0.3589581 0.01607446 0.9332153
62.6193470954895 40.4826574325562 10.0930054187775 0.4234653 0.01725229 0.9057481
62.5749382972717 42.1002826690674 10.0823640823365 0.421659 0.04324794 0.9057225
63.9425115585327 42.1706027984619 9.3800513744355 0.4896445 0.0473734 0.8706343
63.7106881141663 43.8761658668518 9.35892295837409 0.4816347 0.1086475 0.8696113
62.3683085441589 43.6775150299072 10.0590038299561 0.4142622 0.09763154 0.904906
63.9825015068054 40.4218120574951 9.39376497268684 0.4916094 0.0177847 0.8706342
65.2608108520508 40.3647537231445 8.60218429565437 0.5626336 0.01750943 0.8265209
65.2360525131226 42.2300834655762 8.58088302612312 0.5604511 0.05163008 0.8265766
66.423752784729 42.2892560958862 7.69211626052863 0.6347343 0.05626381 0.7706794
66.1624870300293 44.2426161766052 7.66768074035652 0.6240274 0.1326899 0.770054
64.979471206665 44.0620079040527 8.56339192390449 0.5512188 0.1207137 0.8255823
66.4679861068726 40.3108720779419 7.7024161815644 0.6369897 0.01818031 0.770658
67.5853786468506 40.2609949111939 6.68358284235008 0.7147825 0.01920061 0.6990832
67.5349159240723 42.3490304946899 6.67575153708465 0.7118618 0.06100185 0.6996653
68.5216827392578 42.4050674438477 5.54823499917991 0.790863 0.06500926 0.6085306
68.2301044464111 44.5675091743469 5.53009074926383 0.7778066 0.1599728 0.6078039
67.2535037994385 44.4154715538025 6.65626266598708 0.7001321 0.1454015 0.6990518
68.5769805908203 40.2167348861694 5.54510372877128 0.7944656 0.01910372 0.6070086
69.4072380065918 40.1796760559082 4.29261374473579 0.869311 0.01854229 0.4939177
69.3561534881592 42.4549813270569 4.29803991317756 0.866787 0.06969935 0.4937836
70.0071487426758 42.4938941001892 2.94128704071052 0.9339272 0.07537702 0.3494256
69.6770944595337 44.8083424568176 2.92364621162422 0.9185967 0.188129 0.347545
69.0599212646484 44.6992044448853 4.28040683269508 0.8531638 0.1750708 0.4913875
70.0529527664185 40.1508541107178 2.93916201591499 0.9365582 0.01870312 0.3500128
70.4531345367432 40.1329917907715 1.49259281158454 0.9833716 0.019322 0.1805741
70.4046611785889 42.5200080871582 1.49344539642341 0.9802579 0.07886893 0.1813123
70.5473756790161 42.5292067527771 7.01660951563099E-14 0.99238 0.07935036 0.09426272
70.2106809616089 44.9075317382813 7.01660951563099E-14 0.9754866 0.1986388 0.09470206
70.0738086700439 44.8824319839478 1.48590850830085 0.9634649 0.1966145 0.1818737
70.5925827026367 40.1267671585083 7.01660951563099E-14 0.9953749 0.0194525 0.09407632
69.5966310501099 47.2114636898041 7.01660951563099E-14 0.9444284 0.3145036 0.09561615
69.45814037323 47.1704132556915 1.48231363296516 0.9327949 0.3110135 0.1821103
69.0813903808594 47.0549442768097 2.91754126548774 0.8895267 0.2975433 0.3467135
68.590991973877 49.3372857570648 1.47932100296028 0.8889678 0.4200897 0.182376
68.225172996521 49.1758502721787 2.90998578071601 0.8481595 0.4012763 0.3458364
67.6517486572266 48.9323196411133 4.25654029846198 0.7895963 0.3738406 0.4866014
68.4720640182495 46.8715267181397 4.26043057441718 0.8272021 0.277609 0.4885386
66.9028921127319 48.6174535751343 5.49167877435691 0.7206394 0.3430202 0.6025081
67.6856241226196 46.6489119529724 5.50596314668662 0.7551328 0.2541768 0.6042919
65.9991483688354 48.2591753005982 6.61324831843383 0.6468439 0.3114107 0.6961439
66.7389030456543 46.3983607292175 6.63722449541099 0.6783432 0.2303918 0.6976891
64.9665098190308 47.8675630092621 7.62371349334724 0.5751317 0.2811662 0.7682247
65.6678113937378 46.1155424118042 7.64660656452186 0.6034108 0.2089289 0.769574
63.8464374542236 47.469384431839 8.515187740326 0.5078354 0.2537729 0.8232269
64.5102243423462 45.8245530128479 8.53933691978462 0.5332862 0.1895326 0.824429
62.6598958969116 47.0391311645508 9.30125451087959 0.4433336 0.2284651 0.866752
63.2749714851379 45.5155277252197 9.33390617370613 0.46583 0.1709628 0.8682017
61.4177041053772 46.620658159256 9.98231744766242 0.3820054 0.2048179 0.9011778
61.9733805656433 45.1987991333008 10.0245723724366 0.4004997 0.153191 0.9034005
60.0999200344086 46.2127575874329 10.5741682052613 0.3254391 0.1838623 0.927515
60.5898885726929 44.889262676239 10.6287188529969 0.3401163 0.1374098 0.93029
58.6841862201691 45.8753399848938 11.0893707275391 0.2668636 0.16759 0.9490508
59.5031807422638 47.4202258586884 10.5113482475281 0.3071823 0.2280959 0.9239109
58.220486998558 47.1011793613434 10.9717826843262 0.2531636 0.2113884 0.9440461
60.7422819137573 47.901047706604 9.93310332298286 0.3597727 0.2517753 0.898428
61.9105424880981 48.4180818796158 9.26831269264228 0.4158185 0.2803185 0.8651685
61.0665736198425 49.6273835301399 9.23254108428962 0.3844275 0.3268919 0.8633407
62.1049609184265 50.2726416960359 8.46292996406562 0.4400921 0.3647788 0.8205214
61.0781736373901 51.432768702507 8.4397802352906 0.398952 0.4113847 0.819512
60.1560871601105 50.6557393372059 9.20446181297309 0.3504322 0.3667688 0.8617876
63.0325455665588 48.952595114708 8.49089384078987 0.4765524 0.3121387 0.8218681
64.0979380607605 49.4751197099686 7.5969576835633 0.5403789 0.3469324 0.7665694
63.0735731124878 50.9200577735901 7.58152425289161 0.4989237 0.4064449 0.7654265
63.9568486213684 51.527508020401 6.58983752131469 0.5609934 0.4526905 0.6930784
62.7139010429382 52.9098589420319 6.58695954084403 0.5066816 0.5134537 0.6925598
61.9259881973267 52.19291472435 7.57237565517433 0.4509069 0.4603024 0.7647252
65.0615091323853 49.973551094532 6.59887576103217 0.6075001 0.3854655 0.6945214
65.90611743927 50.4355558902025 5.4819686412812 0.6755407 0.4259627 0.601831
64.7315063476563 52.0844235420227 5.4783242344857 0.6233417 0.5004201 0.6008534
65.3832406997681 52.5626783370972 4.24666690826423 0.6818624 0.545296 0.4875612
64.0035157203674 54.1106336116791 4.24025702476508 0.6161662 0.618875 0.4871683
63.4124479293823 53.5567378997803 5.47132390737541 0.5632725 0.5676444 0.6004198
66.6107425689697 50.8342714905739 4.25150871276862 0.7404318 0.4636286 0.4866306
67.1495456695557 51.1428840756416 2.9075479507447 0.796711 0.4961272 0.3451225
65.8941802978516 52.9403901100159 2.90987968444831 0.7339426 0.5846364 0.345729
66.2050619125366 53.1676106452942 1.47990846633918 0.7703712 0.611733 0.1797526
64.7467651367188 54.8110218048096 1.47593498229987 0.6951857 0.6959813 0.1797965
64.4530630111694 54.5336842536926 2.89917039871223 0.6626986 0.6642179 0.3458976
67.4923324584961 51.3430191874504 1.48002910614021 0.8346683 0.5201551 0.181018
67.6145305633545 51.4144852161408 7.01660951563099E-14 0.8444505 0.5272338 0.09448771
66.315092086792 53.2498364448547 7.01660951563099E-14 0.7800493 0.6187677 0.09300315
68.7212362289429 49.393092751503 7.01660951563099E-14 0.9001348 0.4249769 0.09566591
64.8464965820313 54.9043107032776 7.01660951563099E-14 0.7038089 0.7043947 0.0920929
63.2122120857239 56.3526248931885 7.01660951563099E-14 0.619885 0.7792605 0.09217163
63.1254034042358 56.2478280067444 1.47545766830451 0.6123822 0.7699286 0.1794381
61.451003074646 57.6081938743591 7.01660951563099E-14 0.5313594 0.8419648 0.09355406
61.3773574829102 57.4912414550781 1.47647380828864 0.5239299 0.8323241 0.1809257
61.159924030304 57.1540384292603 2.9027552604676 0.4995596 0.7952063 0.3436381
62.8789467811584 55.9547390937805 2.90393614768989 0.5846269 0.7343264 0.3449291
60.8350052833557 56.6353712081909 4.25191724300392 0.4660235 0.7393997 0.4859117
62.4775514602661 55.463351726532 4.24026417732246 0.544406 0.6830137 0.486944
60.39510679245 55.950355052948 5.47700816392906 0.4259576 0.6746681 0.6028126
61.9612512588501 54.8426809310913 5.47458887100227 0.4970422 0.6256078 0.6013018
59.8761310577393 55.1455883979797 6.58892360329635 0.383857 0.6096222 0.6935521
61.3482608795166 54.1125891208649 6.58374753594406 0.4469568 0.5659862 0.6927404
59.3028614521027 54.2469456195831 7.58089673519142 0.3428476 0.5458442 0.7645323
60.6608500480652 53.3025147914887 7.57100856304176 0.3987494 0.5069332 0.7642105
58.6831250190735 53.2777543067932 8.45871472358711 0.3047184 0.485228 0.8195733
59.9315440654755 52.4285407066345 8.44122242927558 0.3540472 0.4513319 0.8191155
58.0582392215729 52.2616102695465 9.21976232528694 0.2700534 0.4277677 0.8626042
59.1665270328522 51.5281323194504 9.1960468292237 0.3129178 0.400268 0.8613176
57.508029460907 51.126789689064 9.89208674430854 0.2391972 0.371036 0.8972831
56.908893764019 52.8187084197998 9.26468968391426 0.2258011 0.4487688 0.8646505
56.5078559368849 51.5262544155121 9.96886229515083 0.2028951 0.3853004 0.9002095
56.1267281621695 50.1382527947426 10.5840463638306 0.1830445 0.3261371 0.9274316
57.0379075407982 49.7281896471977 10.5289325714112 0.2149588 0.3140162 0.924763
55.4129660725594 51.9398394823074 10.0117411613465 0.1629802 0.3998758 0.9019628
55.7109421491623 53.2864379882813 9.30113101005561 0.1799172 0.4655689 0.8665307
54.3891167640686 53.6660821437836 9.32855105400093 0.1293143 0.4793349 0.8680529
54.2441864013672 52.3175565004349 10.0248229503632 0.1193974 0.4131225 0.9028145
52.9492118358612 53.9252479076386 9.35504913330085 0.07514513 0.4887325 0.8691915
52.9541895389557 52.5900647640228 10.0364465713502 0.07267199 0.4218239 0.9037607
51.4062457084656 54.0380039215088 9.37616395950324 0.01662882 0.4926152 0.8700884
51.5447001457214 52.7071661949158 10.0556180477143 0.0208934 0.4247776 0.9050566
51.719446182251 51.3322629928589 10.6390223503114 0.02573979 0.3653767 0.9305038
50.055591583252 52.6400375366211 10.0767850875855 -0.03326905 0.4216633 0.9061419
50.3549799919128 51.2709369063377 10.6661610603333 -0.02164903 0.3619796 0.9319346
50.7116208076477 49.8677303195 11.1692919731141 -0.007973098 0.3049891 0.9523225
51.9898447990417 49.9638254344463 11.1216039657593 0.03473461 0.3087425 0.9505112
51.180299282074 48.4345030784607 11.582947254181 0.009497546 0.2491443 0.9684198
49.4289498329163 49.6323741078377 11.2026753425599 -0.05190797 0.2972032 0.9534022
49.9679837226868 48.1866247653961 11.6314501762391 -0.03077109 0.2403076 0.9702089
50.5979065895081 46.7663514614105 11.9513649940491 -0.009667211 0.1888095 0.9819661
48.7970108985901 47.8223485946655 11.6597843170167 -0.06905131 0.2290258 0.9709681
49.4653058052063 46.4006872177124 11.9878759384156 -0.04483511 0.1770396 0.983182
50.1066222190857 45.097704410553 12.2140007019044 -0.02438089 0.1337221 0.9907189
51.2197556495667 45.4773888587952 12.1714034080506 0.009514016 0.1454118 0.9893255
50.6767263412476 43.9297337532044 12.3553619384766 -0.006503054 0.09832574 0.995133
51.7746558189392 44.3038592338562 12.309151172638 0.02676587 0.107502 0.9938445
51.1506190299988 42.885308265686 12.4442896842957 0.009316539 0.06314329 0.997961
52.2036175727844 43.1890788078308 12.3951535224915 0.04026524 0.07117865 0.9966505
53.3093681335449 43.2877526283264 12.3239445686341 0.07569253 0.07441549 0.9943506
52.4277305603027 42.0570964813232 12.4470438957215 0.04779918 0.03618445 0.9982014
53.4547727108002 42.0652580261231 12.3782181739808 0.0819562 0.0369892 0.9959493
54.6411317586899 42.0265369415283 12.2616925239564 0.1212652 0.03569316 0.9919782
53.5000228881836 40.889702796936 12.3983025550843 0.08399525 0.01984839 0.9962685
54.7046560049057 40.8359336853027 12.2759242057801 0.1224731 0.01869328 0.9922957
56.2486126311123 40.7670183181763 12.0498499870301 0.1703942 0.01774482 0.9852162
52.5068235397339 40.9340353012085 12.4661149978638 0.04965623 0.02082256 0.9985493
51.4862627983093 41.9176559448242 12.4775981903077 0.0194003 0.0319411 0.9993014
51.6449332237244 40.9725065231323 12.4944577217103 0.02187507 0.02103665 0.9995394
50.6192712783813 41.6641216278076 12.4924697875977 0.008484175 0.02924254 0.9995363
50.9626312255859 41.0029611587524 12.5033340454102 0.01228636 0.02109409 0.999702
50.1792426109314 42.5114169120789 12.4615054130555 -0.004225334 0.05831013 0.9982896
49.6763396263123 43.4797863960266 12.377634048462 -0.0210738 0.0937222 0.9953753
49.0742893218994 44.6390638351441 12.2313294410706 -0.03924751 0.1278879 0.9910117
48.39905834198 45.9392590522766 12.0028429031373 -0.06150815 0.1706867 0.9834037
47.6732978820801 47.3367476463318 11.6678285598756 -0.0878618 0.2225033 0.9709648
48.1701917648315 49.245308637619 11.2228603363038 -0.09361887 0.2848607 0.9539863
46.9521827697754 48.7252923250198 11.2286157608033 -0.113201 0.2775675 0.9540135
47.5930347442627 50.6170911341906 10.7042632102967 -0.115516 0.3388836 0.9337098
46.2629146575928 50.0525157749653 10.7124328613282 -0.1365811 0.3308956 0.9337311
47.0470848083496 51.9349813461304 10.1089081764222 -0.1390244 0.3973663 0.907068
45.6043977737427 51.3205270767212 10.1103742122651 -0.1637549 0.3886166 0.9067312
46.5333271026611 53.1996264457703 9.41192841529853 -0.1643799 0.4604022 0.8723584
44.9727392196655 52.5368168354034 9.40980744361885 -0.1919834 0.4504294 0.8719265
46.0527372360229 54.4008851051331 8.61771941185005 -0.190321 0.5270672 0.8282379
44.3723039627075 53.6930522918701 8.61302089691169 -0.2208236 0.5157896 0.827767
45.6079368591309 55.5310120582581 7.7168536186219 -0.2167337 0.5960804 0.77312
43.8133497238159 54.7692828178406 7.70596575737007 -0.2521084 0.5829033 0.772441
45.1985082626343 56.5747857093811 6.70858567953117 -0.2441618 0.6686104 0.7023853
43.2993192672729 55.7590761184692 6.69437587261207 -0.2841434 0.6532735 0.7017807
44.8335056304932 57.4974241256714 5.57465952634818 -0.2735983 0.744062 0.6095209
42.8401889801025 56.6431565284729 5.56581157445915 -0.316335 0.7283022 0.6078718
44.5257415771484 58.2792501449585 4.31709086894996 -0.3014375 0.8148881 0.4950686
42.4564647674561 57.3820338249207 4.30962443351753 -0.3471844 0.7968435 0.4944728
44.2855224609375 58.8926525115967 2.95427608489997 -0.3255344 0.8783808 0.3499637
42.1566390991211 57.9593634605408 2.95201325416572 -0.3760578 0.858095 0.3496477
44.1359806060791 59.2613487243652 1.5003156661988 -0.3429593 0.92186 0.1804246
41.9743051528931 58.3104639053345 1.50194835662849 -0.3958516 0.9006757 0.1791223
44.0819482803345 59.3917608261108 7.01660951563099E-14 -0.3480235 0.9327923 0.0936918
41.909065246582 58.4360847473145 7.01660951563099E-14 -0.4008257 0.9113559 0.09364416
46.3850049972534 59.9566841125488 1.49787139892585 -0.2313262 0.9556542 0.1822449
46.3460836410522 60.092041015625 7.01660951563099E-14 -0.2349799 0.9674522 0.09391875
48.6784162521362 60.3650369644165 1.4946365356446 -0.1150949 0.9763354 0.1830912
48.656524181366 60.505989074707 7.01660951563099E-14 -0.1170073 0.9886237 0.09451155
50.9731225967407 60.5009231567383 1.48812723159797 -0.0001429483 0.9831176 0.1829746
50.9667282104492 60.6423845291138 7.01660951563099E-14 -0.000487491 0.9954918 0.09484629
53.2343807220459 60.3693323135376 1.48464584350593 0.1136999 0.9766192 0.1824476
53.2459924221039 60.5109043121338 7.01660951563099E-14 0.1150294 0.988836 0.09471878
55.4220921397209 59.9862699508667 1.48404312133796 0.2259225 0.9570304 0.1818019
55.4520074129105 60.123215675354 7.01660951563099E-14 0.2286484 0.9688855 0.0947671
57.512864112854 59.3613271713257 1.48169088363654 0.330779 0.9260886 0.181508
57.5579437017441 59.4967832565308 7.01660951563099E-14 0.3345566 0.9375257 0.09548533
59.502699136734 58.5300712585449 1.47823715209968 0.4294045 0.8845686 0.1820721
59.5624563694 58.6598386764526 7.01660951563099E-14 0.4342398 0.8957379 0.0953382
57.3893109560013 58.9893102645874 2.91319227218635 0.3160521 0.8835456 0.3456273
59.3310041427612 58.172064781189 2.90786695480354 0.4101891 0.8445225 0.3442772
57.1916252374649 58.3880815505982 4.25506079196937 0.2940293 0.8221618 0.487439
59.0707998275757 57.6093573570252 4.25426781177528 0.3812715 0.7865812 0.4857181
56.9376978874207 57.618350982666 5.49497115612037 0.2686213 0.7517844 0.602215
58.7208228111267 56.878701210022 5.48568028211601 0.3492109 0.717855 0.6022757
56.6455493867397 56.7025361061096 6.61694505810745 0.2431233 0.6764315 0.6952204
58.3127119541168 56.0088596343994 6.59838911890991 0.3165554 0.6460541 0.6945551
56.3297736942768 55.6611161231995 7.61271452903755 0.2199006 0.6025505 0.7671874
57.8622400760651 55.0290484428406 7.59259772300727 0.2834702 0.5771675 0.7658475
56.0094074606895 54.5292630195618 8.49968004226692 0.1991044 0.533614 0.8219571
57.3870915174484 53.9757206439972 8.47308611869819 0.2530797 0.5126465 0.8204536
54.7025272846222 56.1375870704651 7.62798559665687 0.1527295 0.6224955 0.767576
54.5293462276459 54.9445171356201 8.53350448608406 0.1404283 0.5494266 0.8236567
52.9796998500824 56.4372644424439 7.64891815185554 0.08245972 0.6337201 0.7691549
52.9623546600342 55.2137713432312 8.5607416629792 0.07784972 0.5596965 0.8250329
51.1859040260315 56.5231943130493 7.68111681938178 0.008531644 0.6362357 0.7714475
51.2991280555725 55.3133773803711 8.58207368850715 0.01238122 0.5635511 0.8259884
49.340256690979 56.4173693656921 7.70132839679725 -0.06642719 0.6317551 0.7723166
49.5582103729248 55.224395275116 8.59978508949287 -0.05467249 0.5595609 0.826984
49.791699886322 53.9630362987518 9.39242649078376 -0.04416426 0.4888716 0.8712371
47.7928619384766 54.9256744384766 8.6135649681092 -0.1242267 0.5468202 0.8279827
48.1540555953979 53.6849772930145 9.40551185607917 -0.1056659 0.4775557 0.8722243
48.5412068367004 52.3835208415985 10.0935194492341 -0.08732549 0.4123199 0.9068443
48.9646997451782 51.0295259952545 10.6918411254884 -0.06999113 0.3529757 0.9330109
47.4629640579224 56.0888676643372 7.71344757080085 -0.1427583 0.618379 0.772805
47.1616382598877 57.1615743637085 6.70285749435432 -0.1622749 0.6935343 0.7019096
49.1427578926086 57.5244221687317 6.68106797337539 -0.07900902 0.7090636 0.7007042
48.9630026817322 58.5066604614258 5.54345256090171 -0.08971604 0.789185 0.6075674
46.8849754333496 58.125901222229 5.56695336103446 -0.1828746 0.7707981 0.6102681
51.1007657051086 57.6557068824768 6.6557003855706 0.005584036 0.7151307 0.6989685
51.0462303161621 58.6365375518799 5.5249504446984 0.003557993 0.7965466 0.6045666
51.0127029418945 59.4564142227173 4.27907097339637 0.002014395 0.8712173 0.4908935
48.8306241035461 59.325927734375 4.29290390014655 -0.09890755 0.8647726 0.4923269
53.0215587615967 57.5400810241699 6.63750386238105 0.08926207 0.7115221 0.696971
53.0890355110168 58.514253616333 5.51277267932899 0.09558044 0.7908756 0.6044669
53.1520228385925 59.3330163955689 4.26722681522376 0.1014103 0.865636 0.4902961
53.2023916244507 59.9721450805664 2.92204260826118 0.1082914 0.930846 0.3489968
50.9884715080261 60.0947694778442 2.92753410339362 0.0007514303 0.9365441 0.3505489
55.0597603321075 58.1689624786377 5.5021866559983 0.1837006 0.7753082 0.6042775
55.2209333181381 58.9811744689941 4.26423466205604 0.2006231 0.8486388 0.4894512
55.3437298536301 59.5927734375 2.91730833053596 0.2155667 0.9127596 0.3469883
54.8796241283417 57.2111673355103 6.62399506568916 0.1670795 0.6987004 0.6956308
48.7371168136597 59.9663133621216 2.94032835960395 -0.1081487 0.9303069 0.3504754
46.4879741668701 59.5605945587158 2.94514584541328 -0.219049 0.9108182 0.3498968
46.6538963317871 58.9444990158081 4.31218969821937 -0.2022982 0.8454403 0.4942734
3 0 3 4
3 0 6 7
3 0 5 6
3 1 9 10
3 1 12 13
3 1 11 14
3 2 15 17
3 2 17 18
3 2 7 21
3 2 21 22
3 2 19 7
3 22 21 24
3 22 24 25
3 22 26 15
3 27 28 16
3 27 26 29
3 27 30 28
3 31 32 33
3 31 30 34
3 31 35 32
3 36 37 38
3 36 35 39
3 36 40 37
3 41 42 43
3 43 44 45
3 43 46 37
3 43 42 44
3 47 48 49
3 49 50 51
3 49 52 44
3 49 48 50
3 53 54 55
3 55 56 57
3 55 58 50
3 55 54 56
3 59 60 61
3 61 62 63
3 61 64 56
3 61 60 62
3 65 66 67
3 67 68 69
3 67 70 63
3 67 66 68
3 70 69 72
3 70 73 63
3 74 73 75
3 74 76 78
3 74 78 64
3 78 77 80
3 78 80 57
3 80 79 82
3 80 82 58
3 82 81 84
3 82 84 51
3 84 83 86
3 84 86 52
3 86 85 88
3 86 88 45
3 88 87 90
3 88 90 46
3 90 89 92
3 90 92 38
3 92 91 33
3 92 33 32
3 93 91 94
3 93 95 16
3 93 16 28
3 95 94 11
3 95 10 17
3 94 96 14
3 94 91 96
3 96 97 98
3 96 89 97
3 98 99 100
3 98 101 14
3 98 97 99
3 102 103 104
3 102 97 87
3 102 85 103
3 104 105 106
3 104 107 99
3 104 103 105
3 108 109 110
3 108 103 83
3 108 81 109
3 110 111 112
3 110 113 105
3 110 109 111
3 114 115 116
3 114 109 79
3 114 77 115
3 116 117 118
3 116 119 111
3 116 115 117
3 120 121 122
3 120 115 76
3 120 75 121
3 123 75 73
3 122 124 117
3 124 125 118
3 126 125 127
3 126 128 130
3 126 130 119
3 130 129 132
3 130 132 112
3 132 131 134
3 132 134 113
3 134 133 136
3 134 136 106
3 136 135 138
3 136 138 107
3 138 137 140
3 138 140 100
3 140 139 142
3 140 142 101
3 142 141 13
3 142 13 12
3 143 141 145
3 143 145 146
3 143 147 13
3 147 146 19
3 147 18 10
3 146 145 4
3 146 4 3
3 148 149 151
3 148 151 5
3 148 145 144
3 151 150 153
3 151 153 8
3 153 152 155
3 153 155 156
3 156 155 158
3 156 158 159
3 156 160 8
3 160 159 161
3 160 20 6
3 161 159 163
3 161 163 164
3 161 23 20
3 164 163 166
3 164 166 167
3 164 168 23
3 168 167 169
3 168 170 24
3 170 169 171
3 170 172 25
3 173 172 174
3 173 175 29
3 173 29 26
3 176 34 30
3 176 175 177
3 176 178 34
3 179 39 35
3 177 175 180
3 180 174 182
3 182 181 184
3 183 181 171
3 185 171 169
3 186 169 167
3 187 167 166
3 188 166 165
3 189 165 190
3 191 190 192
3 193 192 194
3 195 194 196
3 197 196 198
3 199 198 200
3 201 200 202
3 203 202 204
3 205 204 206
3 207 206 208
3 209 208 210
3 211 210 212
3 212 210 215
3 215 214 217
3 217 216 219
3 219 218 221
3 221 220 223
3 223 222 225
3 225 224 227
3 227 226 127
3 226 224 228
3 226 229 129
3 229 228 230
3 229 231 129
3 231 230 232
3 231 233 133
3 233 232 234
3 233 235 135
3 235 234 236
3 235 237 137
3 237 236 238
3 237 239 139
3 239 238 149
3 239 144 141
3 238 236 241
3 238 241 150
3 241 240 243
3 241 243 152
3 243 242 245
3 243 245 154
3 245 244 247
3 245 247 248
3 248 247 250
3 248 250 251
3 248 157 154
3 251 250 194
3 251 194 192
3 251 252 157
3 252 192 190
3 252 162 158
3 250 249 196
3 249 253 198
3 249 247 246
3 253 254 200
3 253 246 255
3 255 256 254
3 255 246 258
3 255 258 259
3 259 260 256
3 259 258 263
3 259 263 264
3 264 265 260
3 264 263 268
3 264 268 269
3 269 222 265
3 269 268 228
3 269 228 224
3 268 267 230
3 267 263 262
3 267 270 232
3 270 262 242
3 270 240 234
3 266 218 271
3 266 271 261
3 266 265 220
3 271 216 272
3 271 272 273
3 273 272 206
3 273 206 204
3 273 257 261
3 272 214 208
3 262 258 244
3 257 204 202
3 190 165 162
3 181 174 172
3 0 4 5
3 0 7 3
3 5 8 6
3 1 10 11
3 1 13 9
3 1 14 12
3 15 16 17
3 2 18 19
3 7 20 21
3 2 22 15
3 19 3 7
3 21 23 24
3 22 25 26
3 26 27 15
3 27 16 15
3 27 29 30
3 30 31 28
3 31 33 28
3 31 34 35
3 35 36 32
3 36 38 32
3 36 39 40
3 40 41 37
3 41 43 37
3 43 45 46
3 46 38 37
3 42 47 44
3 47 49 44
3 49 51 52
3 52 45 44
3 48 53 50
3 53 55 50
3 55 57 58
3 58 51 50
3 54 59 56
3 59 61 56
3 61 63 64
3 64 57 56
3 60 65 62
3 65 67 62
3 67 69 70
3 67 63 62
3 66 71 68
3 70 72 73
3 73 74 63
3 74 75 76
3 76 77 78
3 74 64 63
3 77 79 80
3 78 57 64
3 79 81 82
3 80 58 57
3 81 83 84
3 82 51 58
3 83 85 86
3 84 52 51
3 85 87 88
3 86 45 52
3 87 89 90
3 88 46 45
3 89 91 92
3 90 38 46
3 91 93 33
3 92 32 38
3 93 94 95
3 95 17 16
3 93 28 33
3 95 11 10
3 10 18 17
3 94 14 11
3 91 89 96
3 96 98 14
3 89 87 97
3 98 100 101
3 101 12 14
3 97 102 99
3 102 104 99
3 102 87 85
3 85 83 103
3 104 106 107
3 107 100 99
3 103 108 105
3 108 110 105
3 108 83 81
3 81 79 109
3 110 112 113
3 113 106 105
3 109 114 111
3 114 116 111
3 114 79 77
3 77 76 115
3 116 118 119
3 119 112 111
3 115 120 117
3 120 122 117
3 120 76 75
3 75 123 121
3 123 73 72
3 124 118 117
3 125 126 118
3 126 127 128
3 128 129 130
3 126 119 118
3 129 131 132
3 130 112 119
3 131 133 134
3 132 113 112
3 133 135 136
3 134 106 113
3 135 137 138
3 136 107 106
3 137 139 140
3 138 100 107
3 139 141 142
3 140 101 100
3 141 143 13
3 142 12 101
3 141 144 145
3 143 146 147
3 147 9 13
3 147 19 18
3 147 10 9
3 145 148 4
3 146 3 19
3 149 150 151
3 148 5 4
3 148 144 149
3 150 152 153
3 151 8 5
3 152 154 155
3 153 156 8
3 155 157 158
3 156 159 160
3 160 6 8
3 160 161 20
3 20 7 6
3 159 162 163
3 161 164 23
3 23 21 20
3 163 165 166
3 164 167 168
3 168 24 23
3 168 169 170
3 170 25 24
3 170 171 172
3 172 173 25
3 173 174 175
3 175 176 29
3 173 26 25
3 176 30 29
3 176 177 178
3 178 179 34
3 179 35 34
3 175 174 180
3 174 181 182
3 181 183 184
3 183 171 185
3 185 169 186
3 186 167 187
3 187 166 188
3 188 165 189
3 189 190 191
3 191 192 193
3 193 194 195
3 195 196 197
3 197 198 199
3 199 200 201
3 201 202 203
3 203 204 205
3 205 206 207
3 207 208 209
3 209 210 211
3 211 212 213
3 210 214 215
3 214 216 217
3 216 218 219
3 218 220 221
3 220 222 223
3 222 224 225
3 224 226 227
3 226 128 127
3 226 228 229
3 226 129 128
3 229 230 231
3 231 131 129
3 231 232 233
3 231 133 131
3 233 234 235
3 233 135 133
3 235 236 237
3 235 137 135
3 237 238 239
3 237 139 137
3 239 149 144
3 239 141 139
3 236 240 241
3 238 150 149
3 240 242 243
3 241 152 150
3 242 244 245
3 243 154 152
3 244 246 247
3 245 248 154
3 247 249 250
3 248 251 157
3 157 155 154
3 250 196 194
3 251 192 252
3 252 158 157
3 252 190 162
3 162 159 158
3 249 198 196
3 253 200 198
3 249 246 253
3 254 202 200
3 253 255 254
3 256 257 254
3 246 244 258
3 255 259 256
3 260 261 256
3 258 262 263
3 259 264 260
3 265 266 260
3 263 267 268
3 264 269 265
3 222 220 265
3 268 230 228
3 269 224 222
3 267 232 230
3 267 262 270
3 270 234 232
3 270 242 240
3 240 236 234
3 218 216 271
3 266 261 260
3 266 220 218
3 216 214 272
3 271 273 261
3 272 208 206
3 273 204 257
3 257 256 261
3 214 210 208
3 262 244 242
3 257 202 254
3 165 163 162
3 181 172 171
